<svg version="1.1" id="Layer_1" xmlns="http://www.w3.org/2000/svg" xmlns:xlink="http://www.w3.org/1999/xlink" x="0" y="0" viewBox="0 0 466 354" xml:space="preserve"><style>.st0,.st1{clip-path:url(#SVGID_2_);fill:#f5fbff}.st1{fill:none;stroke:#24586b;stroke-width:1.5;stroke-miterlimit:10}.st5{fill:#89e1de}.st5,.st6,.st7,.st8{clip-path:url(#SVGID_4_)}.st6{fill:none;stroke:#24586b;stroke-width:1.5;stroke-miterlimit:10}.st7{fill:#def5ff}.st8{fill:#fff}</style><defs><path id="SVGID_1_" d="M0 0h466v354H0"/></defs><clipPath id="SVGID_2_"><use xlink:href="#SVGID_1_" overflow="visible"/></clipPath><path class="st0" d="M342.4 262.1H145.7c-.8 0-1.4-.6-1.4-1.4V121.9c0-.8.6-1.4 1.4-1.4h196.6c.8 0 1.4.6 1.4 1.4v138.8c.1.7-.6 1.4-1.3 1.4"/><path class="st1" d="M342.4 262.1H145.7c-.8 0-1.4-.6-1.4-1.4V121.9c0-.8.6-1.4 1.4-1.4h196.6c.8 0 1.4.6 1.4 1.4v138.8c.1.7-.6 1.4-1.3 1.4z"/><path clip-path="url(#SVGID_2_)" fill="#89e1de" d="M151.4 134.3h185.3v115.6H151.4z"/><path class="st1" d="M151.4 134.3h185.3v115.6H151.4z"/><path class="st0" d="M244 124c1.8 0 3.3 1.5 3.3 3.3 0 1.8-1.5 3.3-3.3 3.3-1.8 0-3.3-1.5-3.3-3.3.1-1.8 1.5-3.3 3.3-3.3"/><circle class="st1" cx="244" cy="127.3" r="3.3"/><path d="M338.6 279.4H149.5c-9.6 0-17.3-7.8-17.3-17.3h223.7c0 9.5-7.8 17.3-17.3 17.3" clip-path="url(#SVGID_2_)" fill="#def5ff"/><path class="st1" d="M338.6 279.4H149.5c-9.6 0-17.3-7.8-17.3-17.3h223.7c0 9.5-7.8 17.3-17.3 17.3z"/><path class="st0" d="M270.1 262.1h-52.2l4.4 6.1h43.4z"/><path class="st1" d="M270.1 262.1h-52.2l4.4 6.1h43.4z"/><path d="M295.7 148.4H192.3c-3.8 0-7 3.1-7 7v57.7c0 3.8 3.1 7 7 7h8.7l18.7 15.4-2.6-15.4h78.6c3.8 0 7-3.1 7-7v-57.7c0-3.8-3.1-7-7-7" clip-path="url(#SVGID_2_)" fill="#fff"/><path class="st1" d="M295.7 148.4H192.3c-3.8 0-7 3.1-7 7v57.7c0 3.8 3.1 7 7 7h8.7l18.7 15.4-2.6-15.4h78.6c3.8 0 7-3.1 7-7v-57.7c0-3.8-3.1-7-7-7z"/><defs><path id="SVGID_3_" d="M0 0h466v354H0"/></defs><clipPath id="SVGID_4_"><use xlink:href="#SVGID_3_" overflow="visible"/></clipPath><path class="st5" d="M445.5 254c0 3.2-2.6 5.8-5.8 5.8-3.2 0-5.8-2.6-5.8-5.8 0-3.2 2.6-5.8 5.8-5.8 3.3 0 5.8 2.6 5.8 5.8"/><circle class="st6" cx="439.8" cy="254" r="5.8"/><path class="st7" d="M432.1 304.7c0 3.3-2.7 6-6 6s-6-2.7-6-6 2.7-6 6-6 6 2.6 6 6"/><circle class="st6" cx="426.1" cy="304.7" r="6"/><path class="st5" d="M22 191.6c0 1.3-1.1 2.4-2.4 2.4-1.3 0-2.4-1.1-2.4-2.4 0-1.3 1.1-2.4 2.4-2.4 1.4 0 2.4 1.1 2.4 2.4"/><circle class="st6" cx="19.7" cy="191.6" r="2.4"/><path class="st8" d="M185.8 305l-18.8 3.3 14 15.1z"/><path class="st6" d="M185.8 305l-18.8 3.3 14 15.1z"/><path class="st5" d="M400.5 25.8h4.6v4.6h-4.6z"/><path class="st6" d="M400.5 25.8h4.6v4.6h-4.6z"/><path class="st8" d="M345.2 100.4h12.4v12.4h-12.4z"/><path class="st6" d="M345.2 100.4h12.4v12.4h-12.4z"/><path class="st8" d="M386.1 281.4h11v11h-11z"/><path class="st6" d="M386.1 281.4h11v11h-11z"/><path class="st8" d="M113.9 185.4h6.2v6.2h-6.2z"/><path class="st6" d="M113.9 185.4h6.2v6.2h-6.2zm245.4 128h33.3M24 165.2h71.7m281.9 161h62.8m-240.7-161H267m-67.3 8.8H267m-67.3 8.1H267"/><path class="st7" d="M278.4 165h13v18h-13z"/><path class="st6" d="M278.4 165h13v18h-13z"/><path class="st8" d="M262.4 63h6.2v6.2h-6.2z"/><path class="st6" d="M262.4 63h6.2v6.2h-6.2z"/><path class="st5" d="M52.5 47.8c0 1.7-1.4 3.1-3.1 3.1s-3.1-1.4-3.1-3.1c0-1.7 1.4-3.1 3.1-3.1s3.1 1.4 3.1 3.1"/><circle class="st6" cx="49.4" cy="47.8" r="3.1"/><path class="st6" d="M63.6 47.4h44.6m5.6 0h10.9"/><path class="st8" d="M105.9 285.5c0 3.4-2.8 6.1-6.1 6.1-3.4 0-6.1-2.8-6.1-6.1 0-3.4 2.8-6.1 6.1-6.1 3.4 0 6.1 2.7 6.1 6.1"/><circle class="st6" cx="99.8" cy="285.5" r="6.1"/><path class="st6" d="M77.5 308.6h46m-12-9.2H151m-19.7 9.2h9.7"/><path class="st8" d="M58.6 135.4l15.1 10.5.7-19.7z"/><path class="st6" d="M58.6 135.4l15.1 10.5.7-19.7z"/></svg>