<?xml version="1.0" encoding="utf-8"?>
<!-- Generator: Adobe Illustrator 19.0.0, SVG Export Plug-In . SVG Version: 6.00 Build 0)  -->
<svg version="1.1" id="Layer_1" xmlns="http://www.w3.org/2000/svg" xmlns:xlink="http://www.w3.org/1999/xlink" x="0px" y="0px"
	 viewBox="0 0 466 354" style="enable-background:new 0 0 466 354;" xml:space="preserve">
<style type="text/css">
	.st0{clip-path:url(#SVGID_2_);fill:#F5FBFF;}
	.st1{clip-path:url(#SVGID_2_);fill:none;stroke:#24586B;stroke-width:1.5;stroke-miterlimit:10;}
	.st2{clip-path:url(#SVGID_2_);fill:#89E1DE;}
	.st3{clip-path:url(#SVGID_2_);fill:#DEF5FF;}
	.st4{clip-path:url(#SVGID_2_);fill:#FFFFFF;}
	.st5{clip-path:url(#SVGID_4_);fill:#89E1DE;}
	.st6{clip-path:url(#SVGID_4_);fill:none;stroke:#24586B;stroke-width:1.5;stroke-miterlimit:10;}
	.st7{clip-path:url(#SVGID_4_);fill:#DEF5FF;}
	.st8{clip-path:url(#SVGID_4_);fill:#FFFFFF;}
</style>
<g>
	<defs>
		<polyline id="SVGID_1_" points="0,0 466,0 466,354 0,354 		"/>
	</defs>
	<clipPath id="SVGID_2_">
		<use xlink:href="#SVGID_1_"  style="overflow:visible;"/>
	</clipPath>
	<path class="st0" d="M342.4,262.1H145.7c-0.8,0-1.4-0.6-1.4-1.4V121.9c0-0.8,0.6-1.4,1.4-1.4h196.6c0.8,0,1.4,0.6,1.4,1.4v138.8
		C343.8,261.4,343.1,262.1,342.4,262.1"/>
	<path class="st1" d="M342.4,262.1H145.7c-0.8,0-1.4-0.6-1.4-1.4V121.9c0-0.8,0.6-1.4,1.4-1.4h196.6c0.8,0,1.4,0.6,1.4,1.4v138.8
		C343.8,261.4,343.1,262.1,342.4,262.1z"/>
	<rect x="151.4" y="134.3" class="st2" width="185.3" height="115.6"/>
	<rect x="151.4" y="134.3" class="st1" width="185.3" height="115.6"/>
	<path class="st0" d="M244,124c1.8,0,3.3,1.5,3.3,3.3c0,1.8-1.5,3.3-3.3,3.3c-1.8,0-3.3-1.5-3.3-3.3C240.8,125.5,242.2,124,244,124"
		/>
	<circle class="st1" cx="244" cy="127.3" r="3.3"/>
	<path class="st3" d="M338.6,279.4H149.5c-9.6,0-17.3-7.8-17.3-17.3h223.7C355.9,271.6,348.1,279.4,338.6,279.4"/>
	<path class="st1" d="M338.6,279.4H149.5c-9.6,0-17.3-7.8-17.3-17.3h223.7C355.9,271.6,348.1,279.4,338.6,279.4z"/>
	<polygon class="st0" points="270.1,262.1 217.9,262.1 222.3,268.2 265.7,268.2 	"/>
	<polygon class="st1" points="270.1,262.1 217.9,262.1 222.3,268.2 265.7,268.2 	"/>
	<path class="st4" d="M295.7,148.4H192.3c-3.8,0-7,3.1-7,7v57.7c0,3.8,3.1,7,7,7h8.7l18.7,15.4l-2.6-15.4h78.6c3.8,0,7-3.1,7-7
		v-57.7C302.7,151.6,299.6,148.4,295.7,148.4"/>
	<path class="st1" d="M295.7,148.4H192.3c-3.8,0-7,3.1-7,7v57.7c0,3.8,3.1,7,7,7h8.7l18.7,15.4l-2.6-15.4h78.6c3.8,0,7-3.1,7-7
		v-57.7C302.7,151.6,299.6,148.4,295.7,148.4z"/>
</g>
<g>
	<defs>
		<polyline id="SVGID_3_" points="0,0 466,0 466,354 0,354 		"/>
	</defs>
	<clipPath id="SVGID_4_">
		<use xlink:href="#SVGID_3_"  style="overflow:visible;"/>
	</clipPath>
	<path class="st5" d="M445.5,254c0,3.2-2.6,5.8-5.8,5.8c-3.2,0-5.8-2.6-5.8-5.8c0-3.2,2.6-5.8,5.8-5.8
		C443,248.2,445.5,250.8,445.5,254"/>
	<circle class="st6" cx="439.8" cy="254" r="5.8"/>
	<path class="st7" d="M432.1,304.7c0,3.3-2.7,6-6,6c-3.3,0-6-2.7-6-6s2.7-6,6-6C429.4,298.7,432.1,301.3,432.1,304.7"/>
	<circle class="st6" cx="426.1" cy="304.7" r="6"/>
	<path class="st5" d="M22,191.6c0,1.3-1.1,2.4-2.4,2.4c-1.3,0-2.4-1.1-2.4-2.4c0-1.3,1.1-2.4,2.4-2.4C21,189.2,22,190.3,22,191.6"/>
	<circle class="st6" cx="19.7" cy="191.6" r="2.4"/>
	<polygon class="st8" points="185.8,305 167,308.3 181,323.4 	"/>
	<polygon class="st6" points="185.8,305 167,308.3 181,323.4 	"/>
	<rect x="400.5" y="25.8" class="st5" width="4.6" height="4.6"/>
	<rect x="400.5" y="25.8" class="st6" width="4.6" height="4.6"/>
	<rect x="345.2" y="100.4" class="st8" width="12.4" height="12.4"/>
	<rect x="345.2" y="100.4" class="st6" width="12.4" height="12.4"/>
	<rect x="386.1" y="281.4" class="st8" width="11" height="11"/>
	<rect x="386.1" y="281.4" class="st6" width="11" height="11"/>
	<rect x="113.9" y="185.4" class="st8" width="6.2" height="6.2"/>
	<rect x="113.9" y="185.4" class="st6" width="6.2" height="6.2"/>
	<line class="st6" x1="359.3" y1="313.4" x2="392.6" y2="313.4"/>
	<line class="st6" x1="24" y1="165.2" x2="95.7" y2="165.2"/>
	<line class="st6" x1="377.6" y1="326.2" x2="440.4" y2="326.2"/>
	<line class="st6" x1="199.7" y1="165.2" x2="267" y2="165.2"/>
	<line class="st6" x1="199.7" y1="174" x2="267" y2="174"/>
	<line class="st6" x1="199.7" y1="182.1" x2="267" y2="182.1"/>
	<rect x="278.4" y="165" class="st7" width="13" height="18"/>
	<rect x="278.4" y="165" class="st6" width="13" height="18"/>
	<rect x="262.4" y="63" class="st8" width="6.2" height="6.2"/>
	<rect x="262.4" y="63" class="st6" width="6.2" height="6.2"/>
	<path class="st5" d="M52.5,47.8c0,1.7-1.4,3.1-3.1,3.1s-3.1-1.4-3.1-3.1c0-1.7,1.4-3.1,3.1-3.1S52.5,46.1,52.5,47.8"/>
	<circle class="st6" cx="49.4" cy="47.8" r="3.1"/>
	<line class="st6" x1="63.6" y1="47.4" x2="108.2" y2="47.4"/>
	<line class="st6" x1="113.8" y1="47.4" x2="124.7" y2="47.4"/>
	<path class="st8" d="M105.9,285.5c0,3.4-2.8,6.1-6.1,6.1c-3.4,0-6.1-2.8-6.1-6.1c0-3.4,2.8-6.1,6.1-6.1
		C103.2,279.4,105.9,282.1,105.9,285.5"/>
	<circle class="st6" cx="99.8" cy="285.5" r="6.1"/>
	<line class="st6" x1="77.5" y1="308.6" x2="123.5" y2="308.6"/>
	<line class="st6" x1="111.5" y1="299.4" x2="151" y2="299.4"/>
	<line class="st6" x1="131.3" y1="308.6" x2="141" y2="308.6"/>
	<polygon class="st8" points="58.6,135.4 73.7,145.9 74.4,126.2 	"/>
	<polygon class="st6" points="58.6,135.4 73.7,145.9 74.4,126.2 	"/>
</g>
</svg>
